<svg xmlns="http://www.w3.org/2000/svg" viewBox="0 0 512 512">
  <defs>
    <linearGradient id="bg" x1="0%" y1="0%" x2="100%" y2="100%">
      <stop offset="0%" stop-color="#0d1624"/>
      <stop offset="100%" stop-color="#1a2c44"/>
    </linearGradient>
    <linearGradient id="stack" x1="0%" y1="0%" x2="100%" y2="0%">
      <stop offset="0%" stop-color="#f04d4d"/>
      <stop offset="100%" stop-color="#ff8c42"/>
    </linearGradient>
    <linearGradient id="cache" x1="0%" y1="0%" x2="0%" y2="100%">
      <stop offset="0%" stop-color="#ffffff" stop-opacity="0.9"/>
      <stop offset="100%" stop-color="#d7e6ff" stop-opacity="0.8"/>
    </linearGradient>
  </defs>

  <rect width="512" height="512" rx="36" fill="url(#bg)"/>

  <g opacity="0.15">
    <path d="M60 360 C140 260 240 460 320 360 S460 260 520 340" stroke="#7cd4ff" stroke-width="32" fill="none"/>
    <circle cx="128" cy="344" r="14" fill="#7cd4ff"/>
    <circle cx="256" cy="392" r="10" fill="#7cd4ff"/>
    <circle cx="384" cy="320" r="12" fill="#7cd4ff"/>
  </g>

  <g transform="translate(96 128)">
    <rect x="0" y="64" width="200" height="120" rx="18" fill="#132235" stroke="#1f3a5c" stroke-width="4"/>
    <rect x="20" y="36" width="200" height="120" rx="18" fill="#142a40" stroke="#1e456a" stroke-width="4"/>
    <rect x="40" y="8" width="200" height="120" rx="18" fill="#163555" stroke="#21527a" stroke-width="4"/>
    <g transform="translate(70 48)">
      <rect x="0" y="0" width="120" height="24" rx="6" fill="url(#cache)"/>
      <rect x="0" y="38" width="96" height="24" rx="6" fill="url(#cache)" opacity="0.85"/>
      <rect x="0" y="76" width="140" height="24" rx="6" fill="url(#cache)" opacity="0.7"/>
    </g>
  </g>

  <g transform="translate(272 120)">
    <path d="M80 0 L138 22 L138 84 L80 106 L22 84 L22 22 Z" fill="#c9322c"/>
    <path d="M80 18 L117 32 L117 74 L80 88 L43 74 L43 32 Z" fill="url(#stack)"/>
    <polygon points="80,38 87,57 107,57 91,68 98,87 80,76 62,87 69,68 53,57 73,57" fill="#fff2ea"/>
  </g>

  <g transform="translate(160 336)">
    <path d="M0 24 C72 24 168 -8 224 -8" stroke="#7cd4ff" stroke-width="8" stroke-linecap="round" fill="none"/>
    <polygon points="224,-20 256,-8 224,4" fill="#7cd4ff"/>
    <circle cx="0" cy="24" r="12" fill="#7cd4ff"/>
    <circle cx="256" cy="-8" r="10" fill="#ff8c42"/>
  </g>
</svg>
